<?xml version="1.0" encoding="UTF-8"?>
<svg id="Capa_1" xmlns="http://www.w3.org/2000/svg" version="1.1" viewBox="0 0 40 42">
  <!-- Generator: Adobe Illustrator 29.6.1, SVG Export Plug-In . SVG Version: 2.1.1 Build 9)  -->
  <defs>
    <style>
      .st0 {
        fill: #55d3ef;
      }
    </style>
  </defs>
  <polygon class="st0" points="29.6 22 39.5 26.1 34.6 34.9 22.5 25.9 22.4 25.4 22.3 25.4 22.3 25.8 22.5 25.9 24.1 40.9 14.2 40.8 15.6 30.1 13.9 29.1 5.6 35.7 .5 27 13.8 21 .5 15 5.5 6.4 13.9 13 15.6 12 14.2 1.3 24.1 1.1 22.5 16.2 22.3 16.3 22.3 16.6 22.4 16.6 22.5 16.2 34.6 7.1 39.5 15.9 29.6 20.1 29.6 22"/>
</svg>