<?xml version="1.0" encoding="UTF-8"?>
<svg id="Capa_1" xmlns="http://www.w3.org/2000/svg" version="1.1" viewBox="0 0 32 32">
  <!-- Generator: Adobe Illustrator 29.6.1, SVG Export Plug-In . SVG Version: 2.1.1 Build 9)  -->
  <defs>
    <style>
      .st0 {
        fill: #fff;
      }
    </style>
  </defs>
  <path class="st0" d="M24.7,11.3s0,.1.1.1c.1,0,.2,0,.3,0s0,0,.1.1c.2,0,.4,0,.6.1s.1.2.2.2,0,0,.1,0c.1,0,.5.5.6.6.1.2.2.5.2.7s.1,0,.1.1c0,.1,0,.3,0,.5s.1,0,.1.1c0,.2,0,.6,0,.8s-.1,0-.1.1c0,.1,0,.3,0,.5s0,0-.1.1c-.3.7-.7,1.2-1.4,1.4,0,.1-.4,0-.3.3s.2.1.2.2c.7,1,1.6,2,2.4,3s.2.1.2.3h-3c-.3-.3-.6-.6-.9-1-.5-.6-1.1-1.4-1.6-2s-.4-.4-.4-.4h-2.6v3.4h-2.6v-9.3h7.6ZM23.9,13.4h-4.1v1.8h4s0,0,.1-.1.2,0,.2,0,.4-.4.4-.4c0-.1,0-.7,0-.8s0,0-.1-.1,0-.2,0-.2-.1,0-.2,0-.3-.2-.3-.2Z"/>
  <path class="st0" d="M16.4,20.7h-3c0-.2,0-.2-.1-.3-.2-.4-.4-.8-.6-1.1s0-.2-.2-.3h-5.1c0,.2,0,.2-.1.3-.2.4-.4.8-.6,1.1s0,.2-.2.3h-2.9l4.8-9.3h3l.2.2,4.7,9.1ZM8.6,17h3.2c-.5-1-1-1.8-1.4-2.8l-.3-.3c0,.4-.3.7-.5,1-.2.5-.4,1-.7,1.5s-.4.6-.3.6Z"/>
</svg>