<?xml version="1.0" encoding="UTF-8"?>
<svg id="Capa_1" xmlns="http://www.w3.org/2000/svg" version="1.1" viewBox="0 0 198 54">
  <!-- Generator: Adobe Illustrator 29.6.1, SVG Export Plug-In . SVG Version: 2.1.1 Build 9)  -->
  <defs>
    <style>
      .st0 {
        fill: #fff;
      }
    </style>
  </defs>
  <path class="st0" d="M98.6,17.8c0,0,.1.2.2.2.4,0,1,0,1.4.2s.9.4,1,.5c.2.1.9.9,1.1,1.1s0,.2,0,.2c0,.2.5.6.5.7,0,.3,0,.7,0,1s.2.2.2.2c0,.4,0,1.3,0,1.7s-.2.1-.2.2c0,.2,0,.5,0,.7s-.2.1-.2.2c-.4,1-1,1.8-2,2l-.6.5c.3,0,.8,0,1.1,0s.1.2.2.2c.4.1,1,.2,1.4.5s1.3,1.2,1.3,1.3c0,.2,0,.3,0,.5s.2.1.2.2c0,.2,0,.5,0,.7s.2.2.2.2c0,.4,0,1.5,0,1.9s-.2.1-.2.2c0,.2,0,.5,0,.7s-.2.1-.2.2c-.2.6-.5.9-.7,1.4-.3.2-.8.7-1.1.8s-.9.5-1,.5c-.2,0-.5,0-.7,0s-1.1.5-1.2.5h-17.6v-19.7h16.9ZM87.5,25.2h8.8c0,0,.1-.2.2-.2s.2,0,.2,0c.6-.4,1-1.1.8-1.8s-.2-.1-.2-.2,0-.2,0-.2c0,0-.6-.6-.6-.6-.2,0-.3,0-.5,0s-.2-.2-.2-.2h-8.5v3.4ZM87.5,33.4h9.2c0,0,.1-.2.2-.2.2,0,.5,0,.7,0s.1-.2.2-.2.2,0,.2,0c.6-.4.8-1.7.6-2.3s-.7-.8-.8-.8-.2,0-.2,0c-.1,0-.2-.2-.2-.2h-10v3.8Z"/>
  <path class="st0" d="M119.3,17.1c.7-.1,1,.2,1.2.2,1.3.2,2.7,0,4.1.2s.9.4,1.2.5c2.9.9,4.6,1.9,6.1,4.4s.9,1.4,1,1.7,0,.5,0,.7.2.2.2.2c0,.5,0,1.1,0,1.7s.2.1.2.2c.1.7-.2,1.2-.2,1.4,0,.5,0,1.2,0,1.7s-.2.1-.2.2c0,.2,0,.5,0,.7s-.2.1-.2.2c-1.2,3.3-3.6,4.9-6.8,5.9s-1.7.6-2.4.7-3.9.3-4.1.2c-1.1-.2-2.3-.3-3.4-.5s-2.2-.4-3.6-1c-2.9-1.2-4.9-3-5.6-6.1s-.2-.1-.2-.2c0-.4,0-.8,0-1.2s-.2-.2-.2-.2c0-.7,0-1.7,0-2.4s.2-.2.2-.2c0-.5,0-1,0-1.4s.2-.1.2-.2c.6-2.6,2-4.1,4.2-5.4s2.2-1.2,3.1-1.4c1.7-.4,3.6-.4,5.3-.7ZM118.1,21.6c0,0-.1.2-.2.2-.6,0-1.3,0-1.9.2s-1.7.8-1.9,1-.9.8-1.1,1.1,0,.2,0,.2c-.1.2-.4.4-.5.5,0,.3-.2.9-.2,1.2s-.2.1-.2.2c0,.5,0,2.1,0,2.6s.2.1.2.2c0,.2,0,.5,0,.7,0,.3.5.7.7,1s0,.2,0,.2c.3.4.8.7,1.1,1.1,2.3,1.2,4.8,1.7,7.4,1.4s.1-.2.2-.2c.6,0,1.3,0,1.9-.2s1.7-.8,1.9-1,.9-.8,1.1-1.1,0-.2,0-.2c.1-.2.4-.4.5-.5,0-.3.2-.9.2-1.2s.2-.1.2-.2c0-.5,0-2.2,0-2.6s-.2-.1-.2-.2c0-.3-.1-.9-.2-1.2s-.4-.3-.5-.5,0-.2,0-.2c-.3-.4-.8-.7-1.1-1.1-2.3-1.2-4.8-1.7-7.4-1.4Z"/>
  <path class="st0" d="M72.5,17.8c0,0,.1.2.2.2.2,0,.5,0,.7,0s.1.2.2.2c.4.1,1,.2,1.4.5s.5.6.7.7.3,0,.4,0,0,.2,0,.4c.1.2.6.5.7.7s.2.7.2,1,.2.1.2.2c0,.2,0,.5,0,.7s.2.2.2.2c0,.6,0,2.1,0,2.6s-.2.1-.2.2c0,.2,0,.5,0,.7s-.2.1-.2.2c-.3.8-1.1,1.7-1.8,2.3s-1,.6-1.4.7-.4-.2-.4.4l6.2,7.6h-6.6c-.1-.1-.3-.2-.4-.4-1-1.6-3-3.9-4.3-5.5s-1.2-1.3-1.3-1.3h-5.4v7.2h-5.5v-19.7h16.2ZM61.8,25.9h8.5c0,0,.1-.2.2-.2.2,0,.3,0,.5,0s.8-.5.8-.6,0-.3,0-.5c0-.2.4-.4.2-1s-.2-.1-.2-.2c0-.1,0-.3,0-.5s-.6-.6-.6-.6c-.2,0-.3,0-.5,0s-.2-.2-.2-.2h-8.8v3.8Z"/>
  <path class="st0" d="M177.3,17.8c0,0,.1.2.2.2.2,0,.5,0,.7,0s.1.2.2.2c.3,0,.9.1,1.2.2s.3.4.5.5.2,0,.2,0c.3.2,1.2,1.1,1.3,1.3.3.4.4,1,.5,1.4s.2.1.2.2c0,.3,0,.7,0,1s.2.2.2.2c0,.4,0,1.2,0,1.7s-.2.1-.2.2c0,.3,0,.7,0,1s-.2.1-.2.2c-.6,1.5-1.4,2.5-3,3,0,.3-.8.1-.6.6s.4.3.5.5c1.5,2.2,3.4,4.3,5.2,6.4s.5.3.4.7h-6.4c-.6-.7-1.2-1.4-1.8-2-1.1-1.4-2.3-3-3.4-4.3s-.8-.8-.8-.8h-5.4v7.2h-5.5v-19.7h16ZM175.7,22.1h-8.8v3.8h8.5c0,0,.1-.2.2-.2s.3,0,.5,0,.8-.8.8-.8c0-.2,0-1.4,0-1.7s-.2-.1-.2-.2,0-.3,0-.4-.2,0-.4,0-.6-.5-.7-.5Z"/>
  <path class="st0" d="M159.7,37.5h-6.2c.1-.4-.2-.4-.2-.6-.4-.8-.8-1.6-1.2-2.4s0-.4-.4-.6h-10.7c.1.4-.2.4-.2.6-.4.8-.8,1.6-1.2,2.4s0,.4-.4.6h-6.1l10.1-19.7h6.4l.4.4,9.8,19.3ZM143.1,29.8h6.7c-1-2.1-2-3.9-2.9-5.9l-.7-.6c-.1.8-.6,1.4-1,2-.5,1-.9,2.1-1.4,3.1s-.8,1.3-.7,1.3Z"/>
  <path class="st0" d="M33.9,17.8v12.1c0,0,.2.1.2.2,0,.2,0,.5,0,.7s.2.4.2.5c.2.3.6.7.8,1.1.3-.1.5.4.7.5.3,0,.9.1,1.2.2s.1.2.2.2c1.1.3,3.4.4,4.6.2s.1-.2.2-.2c.3,0,.7,0,1,0s.6-.4.7-.5.3,0,.5,0,.9-.7,1.1-.8c0-.4.5-.8.7-1.2-.2-.4.2-.9.2-1v-12.1h5.5v14.3c0,0-.2.1-.2.2,0,.2,0,.3,0,.5s-.2.1-.2.2c-.5,1.1-1,2-2,2.8s-2.2,1.1-3.4,1.4-1.3.3-2.2.5-3.5.6-4.3.5-2.2-.3-3.1-.5c-1.5-.3-2.2-.4-3.6-1s-2.6-1.4-3.5-2.8-.6-.9-.7-1.2,0-.3,0-.5-.2-.2-.2-.2v-14.3h5.5Z"/>
  <polygon class="st0" points="26.7 17.8 26.7 22.1 18.3 22.1 18.3 37.5 12.8 37.5 12.8 22.1 4.7 22.1 4.7 17.8 26.7 17.8"/>
  <path class="st0" d="M188.1,15.9c.3,0,1.4,0,1.7,0s.1.2.2.2c.2,0,.3,0,.5,0s.9.4,1,.5c.2.1,1.2,1.1,1.3,1.3s0,.2,0,.2.2.1.2.2,0,.3,0,.5.2.2.2.2c0,.4,0,2.1,0,2.4s-.2.1-.2.2c-.3.7-.6,1.3-1.1,1.8-.3-.1-.5.3-.7.5s-.2,0-.2,0c-.2,0-.6.5-.7.5-.4,0-2,0-2.4,0s-.1-.2-.2-.2c-.2,0-.3,0-.5,0s-.1-.2-.2-.2-.2,0-.2,0c-.5-.3-1-1.2-1.6-1.6l-.2-1.2c-.3-.3-.3-1.4-.2-1.9s.2-.1.2-.2c0-.2,0-.3,0-.5s.2-.1.2-.2c0-.2.2-.6.2-.7.1-.2.9-.9,1.1-1.1s.2,0,.2,0c.2-.1.6-.4.7-.5s.3,0,.5,0,.2-.2.2-.2ZM187.3,22.8s0,.4,0,.5.2,0,.4,0,.2.2.2.2c.4,0,1.8,0,2.2,0s.7-.6,1.1-.5c0-.5-.8-.1-1-.2s0-.2,0-.4-.2-.1-.2-.2c-.4-.8-.5-1.9-1.7-1.6v2.2h-1v-5c.8.1,2.3-.2,3,0s.7,1.2.8,1.6c-.4.3,0,.8-.6,1.1s-.5,0-.4.1c.5.6.8,1.4,1.3,2,.3-.2.3-.5.4-.6s.5-.6.5-.7c0-.3,0-1.6,0-1.9s-.2-.1-.2-.2c0-.1,0-.3,0-.5s-1.2-1.2-1.3-1.3-.2,0-.2,0c-.2,0-.6-.5-.7-.5-.3,0-1.2,0-1.4,0s-.1.2-.2.2c-.2,0-.3,0-.5,0s-.1.2-.2.2-.2,0-.2,0c-.1,0-1,.9-1.1,1.1s0,.2,0,.2-.2.1-.2.2,0,.3,0,.5-.2.2-.2.2c0,.3,0,1.2,0,1.4s.2.1.2.2c.2.5.5,1.3,1.1,1.6s.3,0,.4,0ZM189.9,19.7c.2-1.4-.5-1.3-1.7-1.2v1.4c.6.1,1.1-.1,1.7-.2Z"/>
</svg>